External Loads File
version=1
nRows=47
nColumns=13
Range=5.000000e-03-10 seconds
endheader
time 	forceRightX 	forceRightY 	forceRightZ 	pointRightX 	pointRightY 	pointRightZ 	forceLeftX 	forceLeftY 	forceLeftZ 	pointLeftX 	pointLeftY 	pointLeftZ 		
5.005000 -58.489206 96.258053 -0.000000 0.316338 0.444961 -0.104108 129.273536 165.950440 -0.000000 0.065575 0.195751 -0.344895
5.010000 -62.720105 100.649928 -0.000000 0.321144 0.437388 -0.103747 102.597482 117.477565 -0.000000 0.062224 0.203015 -0.344648
5.015000 -67.028912 107.368028 -0.000000 0.325412 0.428618 -0.103479 79.010212 76.530781 -0.000000 0.059120 0.210218 -0.344549
5.020000 -71.501996 116.780276 -0.000000 0.329220 0.419704 -0.103207 59.265278 43.315263 -0.000000 0.056182 0.218197 -0.344423
5.025000 -76.312280 129.117777 -0.000000 0.332423 0.410295 -0.102947 43.707063 17.449396 -0.000000 0.053565 0.226320 -0.344382
5.030000 -81.391362 144.604667 -0.000000 0.334895 0.400530 -0.102729 32.359605 -1.990793 -0.000000 0.051136 0.234823 -0.344296
5.035000 -86.666933 163.268420 -0.000000 0.336892 0.390365 -0.102374 24.849486 -16.103494 -0.000000 0.048984 0.243464 -0.344010
5.040000 -91.880982 185.041188 -0.000000 0.338468 0.379932 -0.103139 20.538024 -26.028096 -0.000000 0.047334 0.252608 -0.343997
5.045000 -96.856540 209.644034 -0.000000 0.339272 0.369073 -0.103166 18.688270 -32.749459 -0.000000 0.046211 0.262056 -0.343784
5.050000 -101.422224 236.666054 -0.000000 0.339546 0.358074 -0.103180 18.607757 -37.054932 -0.000000 0.045581 0.271630 -0.343651
5.055000 -105.034576 265.750403 -0.000000 0.339314 0.346914 -0.103195 19.663566 -39.578341 -0.000000 0.045404 0.281439 -0.343427
5.060000 -107.337797 296.391894 -0.000000 0.338538 0.335547 -0.103157 21.386450 -40.792219 -0.000000 0.045789 0.291297 -0.343234
5.065000 -108.092934 328.051801 -0.000000 0.337513 0.324260 -0.102899 23.433413 -41.043586 -0.000000 0.046786 0.301234 -0.343104
5.070000 -106.809259 360.324431 -0.000000 0.335573 0.312978 -0.103384 25.518330 -40.590556 -0.000000 0.048245 0.311265 -0.342981
5.075000 -103.150885 392.801836 -0.000000 0.333347 0.301798 -0.103568 27.468271 -39.558200 -0.000000 0.050317 0.321366 -0.342904
5.080000 -96.934306 425.074271 -0.000000 0.330757 0.290711 -0.103623 29.231283 -37.939614 -0.000000 0.052923 0.331395 -0.343109
5.085000 -87.905190 456.769299 -0.000000 0.327714 0.279838 -0.103678 30.856193 -35.667485 -0.000000 0.056017 0.341459 -0.343065
5.090000 -75.614380 487.558112 -0.000000 0.324173 0.269121 -0.103916 32.453592 -32.700547 -0.000000 0.059550 0.351661 -0.342999
5.095000 -61.139486 516.909752 -0.000000 0.320081 0.258742 -0.104002 34.246228 -28.974717 -0.000000 0.063674 0.361488 -0.342987
5.100000 -43.831293 544.621117 -0.000000 0.315699 0.248443 -0.104236 36.300657 -24.649346 -0.000000 0.068362 0.371274 -0.342938
5.105000 -25.024464 570.342960 -0.000000 0.310635 0.238718 -0.104270 38.737733 -19.829231 -0.000000 0.073546 0.380784 -0.343011
5.110000 -4.394830 593.984584 -0.000000 0.305085 0.229125 -0.104201 41.531007 -14.762173 -0.000000 0.079174 0.390087 -0.342997
5.115000 17.155422 615.467963 -0.000000 0.299182 0.220027 -0.104133 44.621344 -9.651810 -0.000000 0.085356 0.399275 -0.343014
5.120000 38.672008 634.848205 -0.000000 0.292942 0.211370 -0.104046 47.847667 -4.771832 -0.000000 0.091910 0.408097 -0.342996
5.125000 61.041020 652.147732 -0.000000 0.286003 0.203202 -0.103170 50.936148 -0.634739 -0.000000 0.098810 0.416875 -0.342919
5.130000 82.050352 667.677580 -0.000000 0.278965 0.195531 -0.103059 53.499110 2.405275 -0.000000 0.106085 0.424961 -0.343059
5.135000 102.882914 681.484940 -0.000000 0.271538 0.188363 -0.103192 55.013935 3.759396 -0.000000 0.113768 0.432726 -0.343151
5.140000 125.344305 693.323165 -0.000000 0.263783 0.181798 -0.103298 54.950597 2.993770 -0.000000 0.122531 0.440522 -0.344211
5.145000 142.867716 704.395979 -0.000000 0.255668 0.175724 -0.103530 52.876397 0.698744 -0.000000 0.129716 0.447772 -0.343216
5.150000 161.631523 713.524458 -0.000000 0.247325 0.170216 -0.103603 48.679834 -3.144460 -0.000000 0.138113 0.454439 -0.343004
5.155000 180.346223 720.656247 -0.000000 0.238659 0.165218 -0.103686 42.515972 -7.630779 -0.000000 0.146948 0.460651 -0.342731
5.160000 197.180620 725.798275 -0.000000 0.229877 0.160674 -0.103703 34.839918 -11.728168 -0.000000 0.155620 0.466270 -0.342728
5.165000 213.522287 727.944153 -0.000000 0.220871 0.156827 -0.103603 26.223367 -14.674719 -0.000000 0.164755 0.471147 -0.342378
5.170000 227.971921 726.696392 -0.000000 0.211833 0.153635 -0.103446 17.277976 -15.803312 -0.000000 0.173888 0.475330 -0.342479
5.175000 241.395574 720.987422 -0.000000 0.202696 0.150898 -0.103267 8.450016 -14.859285 -0.000000 0.183431 0.478595 -0.342426
5.180000 252.104697 710.607631 -0.000000 0.193723 0.149388 -0.103008 0.045259 -11.881214 -0.000000 0.192917 0.481238 -0.342212
5.185000 261.785740 694.255516 -0.000000 0.184166 0.148067 -0.102926 -7.881031 -7.227680 -0.000000 0.202453 0.483065 -0.342147
5.190000 267.807018 672.281936 -0.000000 0.175143 0.147269 -0.102510 -15.356039 -1.474694 -0.000000 0.211947 0.484161 -0.342298
5.195000 271.343918 643.785804 -0.000000 0.166192 0.147294 -0.102239 -22.565149 4.712633 -0.000000 0.221567 0.484609 -0.342554
5.200000 271.384374 608.892893 -0.000000 0.157409 0.147964 -0.102026 -29.735838 10.646869 -0.000000 0.230935 0.484302 -0.342925
5.205000 267.704458 567.685033 -0.000000 0.148867 0.149399 -0.101644 -37.092680 15.798483 -0.000000 0.240055 0.483356 -0.342975
5.210000 260.505400 520.366319 -0.000000 0.140487 0.151545 -0.101462 -44.777764 19.915163 -0.000000 0.249136 0.481895 -0.343278
5.215000 248.894809 468.087991 -0.000000 0.132499 0.154425 -0.101308 -52.868309 22.894423 -0.000000 0.257803 0.479639 -0.343261
5.220000 233.152423 411.936030 -0.000000 0.124958 0.157841 -0.101227 -61.292138 24.850946 -0.000000 0.266306 0.476573 -0.343531
5.225000 213.487493 353.549462 -0.000000 0.117826 0.161982 -0.101163 -69.898670 25.944688 -0.000000 0.274559 0.472809 -0.343768
5.230000 190.102532 295.060184 -0.000000 0.111196 0.166531 -0.101128 -78.533431 26.308493 -0.000000 0.282476 0.468564 -0.344224
5.235000 164.126384 238.322068 -0.000000 0.105047 0.171682 -0.101070 -87.014888 26.260604 -0.000000 0.289763 0.463297 -0.344725
